<mxfile host="Electron" modified="2025-03-20T09:31:10.306Z" agent="Mozilla/5.0 (Windows NT 10.0; Win64; x64) AppleWebKit/537.36 (KHTML, like Gecko) draw.io/24.1.0 Chrome/120.0.6099.109 Electron/28.1.0 Safari/537.36" etag="mtsPUcPyrEdMR0W8LmJA" version="24.1.0" type="device">
  <diagram name="第 1 页" id="kHibCsJc4294tQFN3clH">
    <mxGraphModel dx="1418" dy="820" grid="1" gridSize="10" guides="1" tooltips="1" connect="1" arrows="1" fold="1" page="1" pageScale="1" pageWidth="2000" pageHeight="10000" math="0" shadow="0">
      <root>
        <mxCell id="0" />
        <mxCell id="1" parent="0" />
        <mxCell id="kwupcgz2W6ZuytT3eZMv-5" value="Proxy" style="swimlane;fontStyle=1;align=center;verticalAlign=top;childLayout=stackLayout;horizontal=1;startSize=26;horizontalStack=0;resizeParent=1;resizeParentMax=0;resizeLast=0;collapsible=1;marginBottom=0;whiteSpace=wrap;html=1;swimlaneLine=1;rounded=1;fillColor=#ffe6cc;strokeColor=#d79b00;" parent="1" vertex="1">
          <mxGeometry x="747.5" y="450" width="160" height="130" as="geometry" />
        </mxCell>
        <mxCell id="kwupcgz2W6ZuytT3eZMv-6" value="&amp;nbsp;subject:&amp;nbsp;&lt;span style=&quot;font-weight: 700; text-align: center;&quot;&gt;RealSubject&lt;/span&gt;" style="text;strokeColor=none;fillColor=none;align=left;verticalAlign=top;spacingLeft=4;spacingRight=4;overflow=hidden;rotatable=0;points=[[0,0.5],[1,0.5]];portConstraint=eastwest;whiteSpace=wrap;html=1;" parent="kwupcgz2W6ZuytT3eZMv-5" vertex="1">
          <mxGeometry y="26" width="160" height="26" as="geometry" />
        </mxCell>
        <mxCell id="kwupcgz2W6ZuytT3eZMv-7" value="" style="line;strokeWidth=1;fillColor=none;align=left;verticalAlign=middle;spacingTop=-1;spacingLeft=3;spacingRight=3;rotatable=0;labelPosition=right;points=[];portConstraint=eastwest;strokeColor=inherit;" parent="kwupcgz2W6ZuytT3eZMv-5" vertex="1">
          <mxGeometry y="52" width="160" height="8" as="geometry" />
        </mxCell>
        <mxCell id="kwupcgz2W6ZuytT3eZMv-8" value="&lt;p style=&quot;text-align: left; border-color: var(--border-color); margin: 4px 0px 0px;&quot;&gt;&lt;i&gt;r&lt;/i&gt;&lt;span style=&quot;background-color: initial;&quot;&gt;equest()&lt;/span&gt;&lt;/p&gt;" style="text;strokeColor=none;fillColor=none;align=left;verticalAlign=top;spacingLeft=4;spacingRight=4;overflow=hidden;rotatable=0;points=[[0,0.5],[1,0.5]];portConstraint=eastwest;whiteSpace=wrap;html=1;" parent="kwupcgz2W6ZuytT3eZMv-5" vertex="1">
          <mxGeometry y="60" width="160" height="70" as="geometry" />
        </mxCell>
        <mxCell id="-3K28Fer6APiC0GXlQ0C-1" value="&lt;p style=&quot;margin:0px;margin-top:4px;text-align:center;&quot;&gt;&lt;i&gt;&amp;lt;&amp;lt;Interface&amp;gt;&amp;gt;&lt;/i&gt;&lt;br&gt;&lt;b&gt;Subject&lt;/b&gt;&lt;/p&gt;&lt;hr size=&quot;1&quot;&gt;&lt;p style=&quot;margin:0px;margin-left:4px;&quot;&gt;request()&lt;/p&gt;" style="verticalAlign=top;align=left;overflow=fill;fontSize=12;fontFamily=Helvetica;html=1;whiteSpace=wrap;rounded=1;glass=0;shadow=0;fillColor=#dae8fc;strokeColor=#6c8ebf;" parent="1" vertex="1">
          <mxGeometry x="570" y="280" width="190" height="105" as="geometry" />
        </mxCell>
        <mxCell id="-3K28Fer6APiC0GXlQ0C-4" value="RealSubject" style="swimlane;fontStyle=1;align=center;verticalAlign=top;childLayout=stackLayout;horizontal=1;startSize=26;horizontalStack=0;resizeParent=1;resizeParentMax=0;resizeLast=0;collapsible=1;marginBottom=0;whiteSpace=wrap;html=1;swimlaneLine=1;rounded=1;fillColor=#ffe6cc;strokeColor=#d79b00;" parent="1" vertex="1">
          <mxGeometry x="440" y="470" width="160" height="90" as="geometry" />
        </mxCell>
        <mxCell id="-3K28Fer6APiC0GXlQ0C-7" value="" style="line;strokeWidth=1;fillColor=none;align=left;verticalAlign=middle;spacingTop=-1;spacingLeft=3;spacingRight=3;rotatable=0;labelPosition=right;points=[];portConstraint=eastwest;strokeColor=inherit;" parent="-3K28Fer6APiC0GXlQ0C-4" vertex="1">
          <mxGeometry y="26" width="160" height="8" as="geometry" />
        </mxCell>
        <mxCell id="-3K28Fer6APiC0GXlQ0C-8" value="&lt;p style=&quot;text-align: left; border-color: var(--border-color); margin: 4px 0px 0px;&quot;&gt;&lt;i&gt;r&lt;/i&gt;&lt;span style=&quot;background-color: initial;&quot;&gt;equest()&lt;/span&gt;&lt;br&gt;&lt;/p&gt;" style="text;strokeColor=none;fillColor=none;align=left;verticalAlign=top;spacingLeft=4;spacingRight=4;overflow=hidden;rotatable=0;points=[[0,0.5],[1,0.5]];portConstraint=eastwest;whiteSpace=wrap;html=1;" parent="-3K28Fer6APiC0GXlQ0C-4" vertex="1">
          <mxGeometry y="34" width="160" height="56" as="geometry" />
        </mxCell>
        <mxCell id="-3K28Fer6APiC0GXlQ0C-9" value="" style="endArrow=diamondThin;endFill=0;endSize=24;html=1;rounded=0;exitX=0.994;exitY=0.144;exitDx=0;exitDy=0;exitPerimeter=0;" parent="1" source="-3K28Fer6APiC0GXlQ0C-4" edge="1">
          <mxGeometry width="160" relative="1" as="geometry">
            <mxPoint x="440" y="523.75" as="sourcePoint" />
            <mxPoint x="750" y="493" as="targetPoint" />
          </mxGeometry>
        </mxCell>
        <mxCell id="-3K28Fer6APiC0GXlQ0C-3" value="" style="endArrow=block;dashed=1;endFill=0;endSize=12;html=1;rounded=0;entryX=0.5;entryY=1;entryDx=0;entryDy=0;exitX=0.4;exitY=-0.033;exitDx=0;exitDy=0;exitPerimeter=0;" parent="1" target="-3K28Fer6APiC0GXlQ0C-1" edge="1" source="-3K28Fer6APiC0GXlQ0C-4">
          <mxGeometry width="160" relative="1" as="geometry">
            <mxPoint x="230" y="467" as="sourcePoint" />
            <mxPoint x="390" y="467" as="targetPoint" />
          </mxGeometry>
        </mxCell>
        <mxCell id="f3T4Yug2_kUkg0Nu74Wy-1" value="" style="endArrow=block;dashed=1;endFill=0;endSize=12;html=1;rounded=0;exitX=0.6;exitY=-0.015;exitDx=0;exitDy=0;exitPerimeter=0;entryX=0.626;entryY=1;entryDx=0;entryDy=0;entryPerimeter=0;" edge="1" parent="1" source="kwupcgz2W6ZuytT3eZMv-5" target="-3K28Fer6APiC0GXlQ0C-1">
          <mxGeometry width="160" relative="1" as="geometry">
            <mxPoint x="614" y="487" as="sourcePoint" />
            <mxPoint x="560" y="390" as="targetPoint" />
          </mxGeometry>
        </mxCell>
      </root>
    </mxGraphModel>
  </diagram>
</mxfile>
